<?xml version="1.0" encoding="UTF-8"?>
<svg width="23px" height="23px" viewBox="0 0 23 23" version="1.1" xmlns="http://www.w3.org/2000/svg" xmlns:xlink="http://www.w3.org/1999/xlink">
    <!-- Generator: Sketch 47.1 (45422) - http://www.bohemiancoding.com/sketch -->
    <title>Facebook</title>
    <desc>Created with Sketch.</desc>
    <defs></defs>
    <g id="1200px" stroke="none" stroke-width="1" fill="none" fill-rule="evenodd">
        <g id="Home_1200" transform="translate(-985.000000, -3716.000000)" fill-rule="nonzero" fill="#FFFFFF">
            <g id="Facebook" transform="translate(985.000000, 3716.000000)">
                <path d="M11.3904762,0 C5.09285714,0 0,5.09285714 0,11.3904762 C0,17.6880952 5.09285714,22.7809524 11.3904762,22.7809524 C17.6880952,22.7809524 22.7809524,17.6880952 22.7809524,11.3904762 C22.7809524,5.09285714 17.6880952,0 11.3904762,0 Z M14.347619,7.28333333 C14.347619,7.28333333 13.3619048,7.28333333 12.9785714,7.28333333 C12.4857143,7.28333333 12.3761905,7.50238095 12.3761905,7.9952381 C12.3761905,8.43333333 12.3761905,9.2 12.3761905,9.2 L14.347619,9.2 L14.1833333,11.3357143 L12.4309524,11.3357143 L12.4309524,17.6880952 L9.91190476,17.6880952 L9.91190476,11.3904762 L8.59761905,11.3904762 L8.59761905,9.2547619 L9.91190476,9.2547619 C9.91190476,9.2547619 9.91190476,8.92619048 9.91190476,7.55714286 C9.91190476,5.96904762 10.7880952,5.14761905 12.65,5.14761905 C12.9785714,5.14761905 14.402381,5.14761905 14.402381,5.14761905 L14.402381,7.28333333 L14.347619,7.28333333 Z" id="XMLID_247_"></path>
            </g>
        </g>
    </g>
</svg>