<?xml version="1.0" encoding="UTF-8"?>
<svg width="23px" height="22px" viewBox="0 0 23 22" version="1.1" xmlns="http://www.w3.org/2000/svg" xmlns:xlink="http://www.w3.org/1999/xlink">
    <!-- Generator: Sketch 47.1 (45422) - http://www.bohemiancoding.com/sketch -->
    <title>Youtube Copy</title>
    <desc>Created with Sketch.</desc>
    <defs></defs>
    <g id="1200px" stroke="none" stroke-width="1" fill="none" fill-rule="evenodd">
        <g id="Home_1200" transform="translate(-1143.000000, -3716.000000)" fill="#FEFEFE">
            <g id="Soundcloud" transform="translate(1143.000000, 3716.000000)">
                <path d="M18.8364177,14.982557 L12.095962,14.982557 C11.9503924,14.9683544 11.8353924,14.857519 11.8333544,14.7149367 L11.8333544,7.33407595 C11.8353924,7.19817722 11.8843038,7.12855696 12.0674304,7.06088608 C12.5393671,6.886 13.0738987,6.78240506 13.6232785,6.78240506 C15.8647595,6.78240506 17.701557,8.42739241 17.896038,10.5224051 C18.1848481,10.4071139 18.5033544,10.3419494 18.8364177,10.3419494 C20.1785696,10.3419494 21.2668481,11.3829114 21.2668481,12.6675443 C21.2668481,13.9524557 20.1785696,14.982557 18.8364177,14.982557 L18.8364177,14.982557 Z M11.604519,14.7246835 L11.604519,14.7224557 C11.602481,14.8628101 11.4828228,14.9769873 11.3372532,14.9769873 C11.1908101,14.9769873 11.0711519,14.8628101 11.0691139,14.7235696 L11.0143797,13.7859241 L10.9599367,12.8232152 L11.0691139,7.61032911 L11.0691139,7.5841519 C11.0699873,7.50478481 11.1087089,7.43405063 11.1689747,7.3861519 C11.2146835,7.35050633 11.2737848,7.32850633 11.3372532,7.32850633 C11.3873291,7.32850633 11.4339114,7.34159494 11.4737975,7.36443038 C11.5500759,7.41010127 11.6033544,7.49058228 11.6056835,7.58303797 L11.7241772,12.8232152 L11.604519,14.7246835 Z M10.7674937,14.5592658 L10.7573038,14.7497468 C10.7561392,14.8160253 10.7267342,14.8758987 10.6821899,14.9193418 C10.6367722,14.9619494 10.5741772,14.988962 10.5072152,14.988962 C10.4297722,14.988962 10.3616456,14.9552658 10.3150633,14.9020759 C10.2807089,14.8628101 10.2591646,14.8126835 10.2568354,14.7594937 C10.255962,14.7572658 10.255962,14.7539241 10.255962,14.7508608 C10.255962,14.7508608 10.1601772,12.8232152 10.1601772,12.8198734 L10.2547975,8.06397468 L10.255962,8.0183038 C10.2568354,7.93448101 10.3025443,7.86068354 10.3718354,7.81807595 C10.410557,7.79301266 10.4559747,7.77908861 10.5072152,7.77908861 C10.5572911,7.77908861 10.605038,7.79412658 10.6446329,7.8203038 C10.7118861,7.86263291 10.7561392,7.93559494 10.7573038,8.0183038 L10.8629873,12.8221013 L10.7674937,14.5592658 Z M9.90659494,14.7639494 L9.90659494,14.7628354 C9.90455696,14.8878734 9.80091139,14.9847848 9.67251899,14.9847848 C9.54383544,14.9847848 9.44164557,14.8878734 9.4381519,14.7639494 L9.33363291,12.8209873 L9.4381519,8.78524051 C9.44164557,8.66020253 9.54383544,8.56217722 9.67251899,8.56217722 C9.80091139,8.56217722 9.90455696,8.66020253 9.90659494,8.78524051 L10.0239241,12.8221013 L9.90659494,14.7639494 Z M9.06170886,14.7759241 L9.06170886,14.7748101 C9.05821519,14.8901013 8.96388608,14.981443 8.84451899,14.981443 C8.72631646,14.981443 8.63082278,14.8901013 8.62849367,14.7759241 L8.51349367,12.8209873 L8.62732911,8.63179747 C8.63082278,8.51539241 8.72631646,8.42516456 8.84451899,8.42516456 C8.96388608,8.42516456 9.05821519,8.51539241 9.06170886,8.63179747 L9.19126582,12.8209873 L9.06170886,14.7759241 Z M8.22468354,14.7931899 C8.22118987,14.8998481 8.13268354,14.9836709 8.02437975,14.9836709 C7.91549367,14.9836709 7.82786076,14.8998481 7.82436709,14.7943038 L7.69917722,12.8209873 L7.82436709,8.52207595 C7.82786076,8.41541772 7.91549367,8.33159494 8.02437975,8.33159494 C8.13268354,8.33159494 8.22118987,8.41541772 8.22468354,8.52207595 L8.36443038,12.8209873 L8.22468354,14.7931899 Z M7.39231646,14.8062785 L7.39231646,14.8051646 C7.38882278,14.9031899 7.30817722,14.9792152 7.20918987,14.9792152 C7.11020253,14.9792152 7.02955696,14.9031899 7.02606329,14.8062785 L6.8918481,12.8209873 C6.8918481,12.8209873 7.02606329,8.6621519 7.02606329,8.66131646 C7.02955696,8.56440506 7.11020253,8.48726582 7.20918987,8.48726582 C7.30817722,8.48726582 7.38882278,8.56440506 7.39231646,8.66131646 L7.54458228,12.8209873 L7.39231646,14.8062785 Z M6.55529114,14.8377468 L6.55529114,14.8366329 C6.55063291,14.9249114 6.4778481,14.9945316 6.38788608,14.9945316 C6.29937975,14.9945316 6.22659494,14.9249114 6.22193671,14.8366329 L6.07753165,12.8307342 L6.22193671,8.99187342 C6.22659494,8.90387342 6.29937975,8.83425316 6.38788608,8.83425316 C6.4778481,8.83425316 6.55063291,8.90387342 6.55529114,8.99187342 L6.71891139,12.8307342 L6.55529114,14.8377468 Z M5.74883544,14.8388608 L5.74883544,14.8377468 C5.74417722,14.9171139 5.67837975,14.9803291 5.59860759,14.9803291 C5.51912658,14.9803291 5.45303797,14.9171139 5.44867089,14.8388608 L5.29524051,12.8198734 L5.44867089,9.69559494 C5.45303797,9.61622785 5.51912658,9.55329114 5.59860759,9.55329114 C5.67837975,9.55329114 5.74417722,9.61622785 5.74883544,9.69475949 L5.92293671,12.8198734 L5.74883544,14.8388608 Z M4.93568354,14.8377468 C4.93131646,14.9095949 4.87308861,14.9627848 4.80379747,14.9627848 C4.73217722,14.9627848 4.67540506,14.9095949 4.67074684,14.8377468 L4.50596203,12.8187595 L4.67074684,10.8989114 C4.67540506,10.8270633 4.73217722,10.7738734 4.80379747,10.7738734 C4.87425316,10.7738734 4.93131646,10.8270633 4.93568354,10.8977975 L5.1223038,12.8187595 L4.93568354,14.8377468 Z M4.13068354,14.8215949 C4.12486076,14.8834177 4.07478481,14.9302025 4.01451899,14.9302025 C3.95308861,14.9302025 3.90301266,14.8834177 3.89748101,14.8215949 L3.72337975,12.8187595 L3.89748101,10.7488101 C3.90301266,10.6867089 3.95308861,10.6399241 4.01451899,10.6399241 C4.07478481,10.6399241 4.12486076,10.6867089 4.13068354,10.7488101 L4.32836709,12.8187595 L4.13068354,14.8215949 Z M3.33005063,14.7594937 C3.32422785,14.8137975 3.28201266,14.8519494 3.23106329,14.8519494 C3.17865823,14.8519494 3.13760759,14.8137975 3.13207595,14.7594937 L2.94778481,12.8187595 L3.13207595,10.8042278 C3.13644304,10.7499241 3.17865823,10.7106582 3.23106329,10.7106582 C3.28201266,10.7106582 3.32422785,10.7499241 3.33005063,10.8042278 L3.53908861,12.8187595 L3.33005063,14.7594937 Z M2.53727848,14.4787848 C2.53029114,14.5233418 2.49622785,14.5550886 2.4543038,14.5550886 C2.41325316,14.5550886 2.37802532,14.5233418 2.37220253,14.4787848 L2.17772152,12.8176456 L2.37220253,11.1197468 C2.37802532,11.0760253 2.41325316,11.043443 2.4543038,11.043443 C2.49622785,11.043443 2.53029114,11.0751899 2.53727848,11.1197468 L2.75796203,12.8176456 L2.53727848,14.4787848 Z M1.80244304,13.8510886 C1.79574684,13.8936962 1.76401266,13.9240506 1.72296203,13.9240506 C1.68191139,13.9240506 1.65017722,13.8936962 1.64435443,13.8499747 L1.49994937,12.8176456 L1.64435443,11.7680506 C1.65017722,11.7246076 1.68191139,11.6939747 1.72296203,11.6939747 C1.76401266,11.6939747 1.79574684,11.7246076 1.80244304,11.7680506 L1.97421519,12.8187595 L1.80244304,13.8510886 Z M11.3841266,0 C5.09726582,0 0,4.87453165 0,10.8891646 C0,16.9024051 5.09726582,21.7769367 11.3841266,21.7769367 C17.6706962,21.7769367 22.7667975,16.9024051 22.7667975,10.8891646 C22.7667975,4.87453165 17.6706962,0 11.3841266,0 L11.3841266,0 Z" id="Page-1"></path>
            </g>
        </g>
    </g>
</svg>