<?xml version="1.0" encoding="UTF-8"?>
<svg width="23px" height="23px" viewBox="0 0 23 23" version="1.1" xmlns="http://www.w3.org/2000/svg" xmlns:xlink="http://www.w3.org/1999/xlink">
    <!-- Generator: Sketch 47.1 (45422) - http://www.bohemiancoding.com/sketch -->
    <title>Twitter</title>
    <desc>Created with Sketch.</desc>
    <defs></defs>
    <g id="1200px" stroke="none" stroke-width="1" fill="none" fill-rule="evenodd">
        <g id="Home_1200" transform="translate(-1037.000000, -3716.000000)" fill-rule="nonzero" fill="#FFFFFF">
            <g id="Twitter" transform="translate(1037.000000, 3716.000000)">
                <path d="M11.3904762,0 C5.09285714,0 0,5.09285714 0,11.3904762 C0,17.6880952 5.09285714,22.7809524 11.3904762,22.7809524 C17.6880952,22.7809524 22.7809524,17.6880952 22.7809524,11.3904762 C22.7809524,5.09285714 17.6880952,0 11.3904762,0 Z M16.5928571,9.09047619 C16.702381,11.0619048 15.9357143,13.0333333 14.5666667,14.4571429 C13.6357143,15.4428571 11.9928571,16.5928571 9.41904762,16.5928571 C8.05,16.5928571 6.68095238,16.2095238 5.53095238,15.4428571 C5.75,15.4428571 5.91428571,15.497619 6.13333333,15.497619 C7.28333333,15.497619 8.37857143,15.1142857 9.2547619,14.402381 C8.15952381,14.402381 7.22857143,13.6904762 6.9,12.65 C7.06428571,12.7047619 7.22857143,12.7047619 7.39285714,12.7047619 C7.61190476,12.7047619 7.83095238,12.65 8.05,12.5952381 C6.8452381,12.3761905 5.96904762,11.2809524 6.02380952,10.0761905 C6.35238095,10.2952381 6.79047619,10.4047619 7.17380952,10.4047619 C6.07857143,9.69285714 5.6952381,8.15952381 6.40714286,7.00952381 C7.66666667,8.59761905 9.58333333,9.52857143 11.6095238,9.63809524 C11.4452381,8.87142857 11.6095238,8.1047619 12.102381,7.50238095 C12.5952381,6.9 13.3071429,6.57142857 14.0738095,6.57142857 C14.7857143,6.57142857 15.4428571,6.8452381 15.9357143,7.39285714 C16.4833333,7.28333333 17.0309524,7.06428571 17.5238095,6.79047619 C17.3595238,7.39285714 16.9214286,7.88571429 16.4285714,8.21428571 C16.9214286,8.15952381 17.4142857,7.9952381 17.852381,7.83095238 C17.5238095,8.26904762 17.0857143,8.70714286 16.5928571,9.09047619 Z" id="XMLID_248_"></path>
            </g>
        </g>
    </g>
</svg>