<?xml version="1.0" encoding="UTF-8"?>
<svg width="23px" height="22px" viewBox="0 0 23 22" version="1.1" xmlns="http://www.w3.org/2000/svg" xmlns:xlink="http://www.w3.org/1999/xlink">
    <!-- Generator: Sketch 47.1 (45422) - http://www.bohemiancoding.com/sketch -->
    <title>Youtube</title>
    <desc>Created with Sketch.</desc>
    <defs></defs>
    <g id="1200px" stroke="none" stroke-width="1" fill="none" fill-rule="evenodd">
        <g id="Home_1200" transform="translate(-1090.000000, -3716.000000)" fill="#FFFFFF">
            <g id="Youtube" transform="translate(1090.000000, 3716.000000)">
                <g id="XMLID_221_">
                    <path d="M11.6069767,0.0523809524 C5.45581395,0.0523809524 0.481395349,4.92380952 0.481395349,10.947619 C0.481395349,16.9714286 5.45581395,21.8428571 11.6069767,21.8428571 C17.7581395,21.8428571 22.7325581,16.9714286 22.7325581,10.947619 C22.7325581,4.92380952 17.7581395,0.0523809524 11.6069767,0.0523809524 Z M17.972093,12.3095238 C17.9186047,13.4619048 17.8116279,13.8285714 17.6511628,14.247619 C17.544186,14.5095238 17.4372093,14.6666667 17.2767442,14.8238095 C17.0093023,15.0333333 16.7418605,15.1904762 16.3674419,15.2952381 C14.2813953,15.452381 12.4627907,15.5047619 10.4302326,15.452381 C7.96976744,15.4 7.16744186,15.347619 6.63255814,15.2428571 C6.31162791,15.1904762 5.99069767,15.0333333 5.77674419,14.8238095 C5.61627907,14.6666667 5.45581395,14.4047619 5.34883721,14.0380952 C5.24186047,13.7238095 5.24186047,13.5142857 5.18837209,12.8857143 C5.13488372,11.5238095 5.08139535,10.4238095 5.18837209,9.16666667 C5.24186047,8.48571429 5.29534884,7.64761905 5.83023256,7.17619048 C6.09767442,6.96666667 6.36511628,6.80952381 6.68604651,6.75714286 C7.16744186,6.65238095 9.30697674,6.6 11.5534884,6.6 C13.7465116,6.6 15.8860465,6.65238095 16.4209302,6.75714286 C16.8488372,6.80952381 17.2232558,7.07142857 17.4372093,7.33333333 C17.9186047,8.06666667 17.9186047,8.95714286 17.972093,9.69047619 C18.0255814,10.0571429 18.0255814,11.9428571 17.972093,12.3095238 Z" id="XMLID_249_" fill-rule="nonzero"></path>
                    <path d="M10.2697674,9.11428571 L10.2697674,12.6238095 C11.5,11.9952381 12.7302326,11.3666667 13.6930233,10.8428571 C12.5697674,10.2666667 11.4465116,9.69047619 10.2697674,9.11428571 Z" id="XMLID_251_" fill-rule="nonzero"></path>
                </g>
            </g>
        </g>
    </g>
</svg>