<svg id="Layer_1" data-name="Layer 1" xmlns="http://www.w3.org/2000/svg" width="101.96" height="68" viewBox="0 0 101.96 68">
  <defs>
    <style>
      .cls-1 {
        fill: #00783e;
      }

      .cls-2 {
        fill: none;
      }
    </style>
  </defs>
  <title>EQUIDAD_LOGO</title>
  <g>
    <g>
      <path class="cls-1" d="M101.5,51a1.81,1.81,0,1,0,1.94,1.8A1.87,1.87,0,0,0,101.5,51Zm0,3.29a1.49,1.49,0,1,1,1.59-1.49,1.54,1.54,0,0,1-1.59,1.49h0Z" transform="translate(-1.48 -1)"/>
      <path class="cls-1" d="M102.08,53.19a.49.49,0,0,0-.3-.4h0a.52.52,0,0,0,.37-.51.49.49,0,0,0-.16-.37.81.81,0,0,0-.58-.16,2.66,2.66,0,0,0-.49,0v1.94h.26v-.86h.24c.23,0,.34.11.4.39a2.62,2.62,0,0,0,.13.47h.26A3.09,3.09,0,0,1,102.08,53.19Zm-.61-.51h-.26V52a1,1,0,0,1,.25,0c.27,0,.46.12.46.37s-.19.37-.46.37Z" transform="translate(-1.48 -1)"/>
    </g>
    <path class="cls-1" d="M7.24,67.17a.77.77,0,0,1-.53.19.82.82,0,0,1-.65-.29,1.38,1.38,0,0,1-.25-.91,1.34,1.34,0,0,1,.26-.91A.85.85,0,0,1,6.73,65a.7.7,0,0,1,.46.16.85.85,0,0,1,.26.47L8,65.52a1.17,1.17,0,0,0-.43-.73,1.35,1.35,0,0,0-.85-.26,1.57,1.57,0,0,0-.76.19,1.17,1.17,0,0,0-.52.57,2.11,2.11,0,0,0-.17.89,1.67,1.67,0,0,0,.4,1.22,1.39,1.39,0,0,0,1.06.42,1.32,1.32,0,0,0,.89-.3A1.34,1.34,0,0,0,8,66.66l-.53-.07A.94.94,0,0,1,7.24,67.17Z" transform="translate(-1.48 -1)"/>
    <rect class="cls-1" x="7.02" y="62.41" width="0.54" height="0.61"/>
    <rect class="cls-1" x="7.02" y="63.6" width="0.54" height="3.12"/>
    <path class="cls-1" d="M93.63,52.88l-.29,0a2.52,2.52,0,0,0-2,1.3L91.69,53h-.93L89,59.17h.93l1.16-4.08q1-1.26,1.83-1.26a1,1,0,0,1,.4.1Z" transform="translate(-1.48 -1)"/>
    <path class="cls-1" d="M67.45,60.71A2.55,2.55,0,0,1,66,60.25l-.38,1a3.93,3.93,0,0,0,1.63.33,3,3,0,0,0,2.13-.78,3.61,3.61,0,0,0,.79-1.14,15.5,15.5,0,0,0,.73-2.15L72.16,53h-.94l-.21.71a1.29,1.29,0,0,0-1.24-.84,2.58,2.58,0,0,0-1.85.89A5.22,5.22,0,0,0,66.66,56a3.49,3.49,0,0,0-.07,2.18,1.22,1.22,0,0,0,1.24.81,2.5,2.5,0,0,0,2.06-1.3l-.27,1Q69,60.71,67.45,60.71Zm.8-2.67q-1.19,0-.61-2a4.4,4.4,0,0,1,.84-1.7,1.56,1.56,0,0,1,1.18-.61,1.22,1.22,0,0,1,1.12.77L70.07,57a2.77,2.77,0,0,1-1.81,1Z" transform="translate(-1.48 -1)"/>
    <polygon class="cls-1" points="74.54 50.86 76.58 49.03 75.5 49.03 73.84 50.86 74.54 50.86"/>
    <path class="cls-1" d="M82.13,52.85A3,3,0,0,0,80,54.15L80.28,53h-.93L77.6,59.17h.93l1.13-4q1.14-1.35,2-1.35c.26,0,.42.1.47.3a2,2,0,0,1-.11,1l-1.15,4.07h.93l1.25-4.44a1.92,1.92,0,0,0,0-1.37A.94.94,0,0,0,82.13,52.85Z" transform="translate(-1.48 -1)"/>
    <path class="cls-1" d="M55.84,59.17l2.54-9h-.94l-1,3.51a1.29,1.29,0,0,0-1.28-.84,2.52,2.52,0,0,0-1.85.94A6,6,0,0,0,52,56.27a3.67,3.67,0,0,0-.1,2.22,1.19,1.19,0,0,0,1.22.82A2.6,2.6,0,0,0,55.22,58l-.31,1.16Zm-2.22-.84q-1.19,0-.58-2.17a5,5,0,0,1,.86-1.83,1.52,1.52,0,0,1,1.17-.64,1.41,1.41,0,0,1,1.16.77l-.8,2.85A2.84,2.84,0,0,1,53.63,58.33Z" transform="translate(-1.48 -1)"/>
    <path class="cls-1" d="M96.8,52.85a2.87,2.87,0,0,0-2,.87,5.13,5.13,0,0,0-1.32,2.36,3.38,3.38,0,0,0,0,2.36,1.52,1.52,0,0,0,1.52.88A2.91,2.91,0,0,0,97,58.45a5.14,5.14,0,0,0,1.33-2.38,3.33,3.33,0,0,0,0-2.35A1.58,1.58,0,0,0,96.8,52.85Zm.55,3.22q-.68,2.4-2.16,2.4a.84.84,0,0,1-.88-.63,3.2,3.2,0,0,1,.12-1.76q.68-2.39,2.13-2.38t.8,2.37Z" transform="translate(-1.48 -1)"/>
    <path class="cls-1" d="M77.05,53.64a1.16,1.16,0,0,0-1.22-.8,2.62,2.62,0,0,0-1.87.91,5.26,5.26,0,0,0-1.28,2.31,3.22,3.22,0,0,0,.05,2.35,1.64,1.64,0,0,0,1.59.91A5.61,5.61,0,0,0,76,59l.25-.89a4.46,4.46,0,0,1-1.52.38q-1.59,0-1.17-2.2H76.8l.1-.35A3.88,3.88,0,0,0,77.05,53.64Zm-.93,1.77H73.86q.61-1.73,1.68-1.73t.58,1.73Z" transform="translate(-1.48 -1)"/>
    <path class="cls-1" d="M87.24,52.85a2.62,2.62,0,0,0-1.87.91,5.26,5.26,0,0,0-1.28,2.31,3.22,3.22,0,0,0,.05,2.35,1.64,1.64,0,0,0,1.59.91,5.61,5.61,0,0,0,1.7-.34l.25-.89a4.45,4.45,0,0,1-1.52.38q-1.59,0-1.17-2.2h3.24l.1-.35a3.91,3.91,0,0,0,.13-2.27A1.16,1.16,0,0,0,87.24,52.85Zm.29,2.57H85.26q.61-1.73,1.68-1.73t.58,1.72Z" transform="translate(-1.48 -1)"/>
    <path class="cls-1" d="M61.33,52.85a2.61,2.61,0,0,0-1.87.91,5.27,5.27,0,0,0-1.28,2.31,3.22,3.22,0,0,0,.05,2.35,1.64,1.64,0,0,0,1.59.91,5.61,5.61,0,0,0,1.7-.34l.25-.89a4.46,4.46,0,0,1-1.52.38q-1.59,0-1.17-2.2h3.24l.1-.35a3.91,3.91,0,0,0,.13-2.27A1.16,1.16,0,0,0,61.33,52.85Zm.29,2.57H59.35Q60,53.69,61,53.69t.58,1.72Z" transform="translate(-1.48 -1)"/>
    <path class="cls-1" d="M32.51,59.15l3.25-9h-1.2l-1.28,3.51a1.7,1.7,0,0,0-1.63-.84,3.6,3.6,0,0,0-2.37.94,5.7,5.7,0,0,0-1.67,2.48,3,3,0,0,0-.12,2.22,1.54,1.54,0,0,0,1.57.82A3.56,3.56,0,0,0,31.73,58l-.42,1.16Zm-2.83-.84q-1.52,0-.74-2.17A4.6,4.6,0,0,1,30,54.31a2.13,2.13,0,0,1,1.49-.64,1.9,1.9,0,0,1,1.48.77l-1,2.85a4,4,0,0,1-2.31,1Z" transform="translate(-1.48 -1)"/>
    <path class="cls-1" d="M39.88,57.54l1-2.8a1.54,1.54,0,0,0,0-1.45,1.77,1.77,0,0,0-1.46-.47,7.74,7.74,0,0,0-2.43.46l-.33.93a5.89,5.89,0,0,1,2.24-.54q1.17,0,.79,1.07l-.27.75h-.29a6.27,6.27,0,0,0-2.79.54,2.77,2.77,0,0,0-1.47,1.56,1.22,1.22,0,0,0,.1,1.22,1.38,1.38,0,0,0,1.18.48,4.68,4.68,0,0,0,2.4-.91q-.1.91.73.91a2.61,2.61,0,0,0,1-.18l.14-.61-.24,0Q39.53,58.51,39.88,57.54Zm-1.27.2a3.6,3.6,0,0,1-1.77.61.73.73,0,0,1-.64-.28.69.69,0,0,1-.05-.68,1.7,1.7,0,0,1,.94-.91,3.93,3.93,0,0,1,1.71-.35h.4Z" transform="translate(-1.48 -1)"/>
    <path class="cls-1" d="M47.15,59.15l3.25-9H49.2l-1.27,3.51a1.7,1.7,0,0,0-1.63-.84,3.61,3.61,0,0,0-2.37.94,5.71,5.71,0,0,0-1.67,2.48,2.93,2.93,0,0,0-.12,2.22,1.56,1.56,0,0,0,1.57.82A3.55,3.55,0,0,0,46.37,58L46,59.15Zm-2.83-.84q-1.52,0-.74-2.17a4.6,4.6,0,0,1,1.11-1.83,2.13,2.13,0,0,1,1.49-.64,1.9,1.9,0,0,1,1.48.77l-1,2.85a4,4,0,0,1-2.31,1Z" transform="translate(-1.48 -1)"/>
    <path class="cls-1" d="M20.72,57a4,4,0,0,1-2.54,1.35c-.33,0-.54-.1-.61-.3a1.63,1.63,0,0,1,.14-1l1.47-4.08H18l-1.6,4.44a1.61,1.61,0,0,0,0,1.38,1.26,1.26,0,0,0,1.18.51A4.19,4.19,0,0,0,20.34,58l-.42,1.16h1.19l2.23-6.18H22.17Z" transform="translate(-1.48 -1)"/>
    <polygon class="cls-1" points="22.03 58.14 23.22 58.14 25.46 51.96 24.26 51.96 22.03 58.14"/>
    <path class="cls-1" d="M6.33,58.06a7,7,0,0,1-2,.38q-2,0-1.5-2.2H7l.13-.35a3.09,3.09,0,0,0,.17-2.26,1.53,1.53,0,0,0-1.56-.8,3.79,3.79,0,0,0-2.39.91A5.1,5.1,0,0,0,1.73,56a2.57,2.57,0,0,0,.07,2.35,2.24,2.24,0,0,0,2,.91A9,9,0,0,0,6,59Zm-.95-4.39q1.37,0,.75,1.73H3.23Q4,53.66,5.38,53.66Z" transform="translate(-1.48 -1)"/>
    <polygon class="cls-1" points="25.07 49.71 24.67 50.84 25.86 50.84 26.27 49.71 25.07 49.71"/>
    <path class="cls-1" d="M14.48,53l-.25.71a1.7,1.7,0,0,0-1.63-.84,3.6,3.6,0,0,0-2.37.94,5.69,5.69,0,0,0-1.67,2.48,2.93,2.93,0,0,0-.12,2.22,1.56,1.56,0,0,0,1.57.82A3.56,3.56,0,0,0,12.67,58L11.45,61.4h1.2l3-8.43Zm-1.56,4.32a4,4,0,0,1-2.31,1q-1.52,0-.74-2.17A4.62,4.62,0,0,1,11,54.31a2.13,2.13,0,0,1,1.49-.64,1.9,1.9,0,0,1,1.48.77Z" transform="translate(-1.48 -1)"/>
    <path class="cls-1" d="M11.91,66.28a1.63,1.63,0,0,1-.09.61.69.69,0,0,1-.3.33.91.91,0,0,1-.46.12.69.69,0,0,1-.41-.12.56.56,0,0,1-.22-.33,3,3,0,0,1,0-.56V64.6H9.86v1.94a2.74,2.74,0,0,0,0,.49,1,1,0,0,0,.17.39.86.86,0,0,0,.37.27,1.34,1.34,0,0,0,.53.11,1.18,1.18,0,0,0,1-.53v.46h.48V64.6h-.54Z" transform="translate(-1.48 -1)"/>
    <path class="cls-1" d="M15.34,65a1.06,1.06,0,0,0-.37-.3,1.09,1.09,0,0,0-.51-.12,1.3,1.3,0,0,0-.72.2,1.23,1.23,0,0,0-.48.58,2.19,2.19,0,0,0-.16.85,2,2,0,0,0,.18.85,1.36,1.36,0,0,0,.51.58,1.28,1.28,0,0,0,.7.21,1,1,0,0,0,.89-.47v.4h.5V63.42h-.55Zm-.2,2.13a.78.78,0,0,1-.61.28.79.79,0,0,1-.61-.3,1.33,1.33,0,0,1-.26-.89,1.4,1.4,0,0,1,.24-.91.76.76,0,0,1,.61-.29.78.78,0,0,1,.62.3,1.44,1.44,0,0,1,.25.94A1.28,1.28,0,0,1,15.14,67.08Z" transform="translate(-1.48 -1)"/>
    <path class="cls-1" d="M19.33,66.42v-.71a2.81,2.81,0,0,0,0-.49.83.83,0,0,0-.17-.36.91.91,0,0,0-.38-.24,2,2,0,0,0-.67-.09,2.2,2.2,0,0,0-.73.11,1.05,1.05,0,0,0-.48.3,1.27,1.27,0,0,0-.24.54l.53.07a.8.8,0,0,1,.27-.46A1,1,0,0,1,18,65a.91.91,0,0,1,.61.18.58.58,0,0,1,.16.46v.14a5.06,5.06,0,0,1-1,.18,3.79,3.79,0,0,0-.48.08,1.36,1.36,0,0,0-.39.17.87.87,0,0,0-.1,1.37,1.18,1.18,0,0,0,.81.25,1.73,1.73,0,0,0,.61-.1,2,2,0,0,0,.58-.35,1.14,1.14,0,0,0,.11.39h.57a1.15,1.15,0,0,1-.14-.37A7.15,7.15,0,0,1,19.33,66.42Zm-.55-.06a1.25,1.25,0,0,1-.09.53.84.84,0,0,1-.36.37,1.14,1.14,0,0,1-.56.13.72.72,0,0,1-.48-.14.45.45,0,0,1-.16-.35.44.44,0,0,1,.08-.25.47.47,0,0,1,.21-.17,2.09,2.09,0,0,1,.47-.1,4,4,0,0,0,.89-.2Z" transform="translate(-1.48 -1)"/>
    <path class="cls-1" d="M22.21,65a1.08,1.08,0,0,0-.88-.43,1.3,1.3,0,0,0-.72.2,1.22,1.22,0,0,0-.48.58,2.19,2.19,0,0,0-.16.85,2,2,0,0,0,.18.85,1.36,1.36,0,0,0,.5.58,1.28,1.28,0,0,0,.7.21,1,1,0,0,0,.89-.47v.4h.5V63.42h-.54ZM22,67.08a.78.78,0,0,1-.61.28.79.79,0,0,1-.61-.3,1.33,1.33,0,0,1-.26-.89,1.4,1.4,0,0,1,.24-.91.76.76,0,0,1,.61-.29.78.78,0,0,1,.61.3,1.44,1.44,0,0,1,.25.94A1.28,1.28,0,0,1,22,67.08Z" transform="translate(-1.48 -1)"/>
    <path class="cls-1" d="M29.43,64.9a.82.82,0,0,0-.37-.27,1.36,1.36,0,0,0-.53-.1,1.16,1.16,0,0,0-1,.51V64.6H27v3.12h.54V66a1,1,0,0,1,.25-.82.91.91,0,0,1,.61-.22.71.71,0,0,1,.38.1.51.51,0,0,1,.23.25,1.42,1.42,0,0,1,.06.48v1.9h.52V65.8a3,3,0,0,0,0-.51A1,1,0,0,0,29.43,64.9Z" transform="translate(-1.48 -1)"/>
    <rect class="cls-1" x="28.98" y="63.6" width="0.54" height="3.12"/>
    <path class="cls-1" d="M26.22,67.35a7.15,7.15,0,0,1,0-.93v-.71a2.9,2.9,0,0,0,0-.49.82.82,0,0,0-.17-.36.89.89,0,0,0-.38-.24,2,2,0,0,0-.66-.09,2.2,2.2,0,0,0-.73.11,1.05,1.05,0,0,0-.48.3,1.27,1.27,0,0,0-.24.54l.53.07a.8.8,0,0,1,.27-.46,1,1,0,0,1,.57-.13.91.91,0,0,1,.61.18.58.58,0,0,1,.16.46v.14a5.06,5.06,0,0,1-1,.18,3.79,3.79,0,0,0-.48.08,1.36,1.36,0,0,0-.39.17.87.87,0,0,0-.1,1.37,1.18,1.18,0,0,0,.81.25,1.73,1.73,0,0,0,.61-.1,2.07,2.07,0,0,0,.58-.35,1.11,1.11,0,0,0,.11.39h.57A1.15,1.15,0,0,1,26.22,67.35Zm-.58-1a1.25,1.25,0,0,1-.09.53.84.84,0,0,1-.36.37,1.14,1.14,0,0,1-.56.13.73.73,0,0,1-.48-.14.45.45,0,0,1-.16-.35.43.43,0,0,1,.08-.25.46.46,0,0,1,.21-.17,2.08,2.08,0,0,1,.47-.1,4,4,0,0,0,.89-.2Z" transform="translate(-1.48 -1)"/>
    <path class="cls-1" d="M34.46,67.35a7.39,7.39,0,0,1,0-.93v-.71a2.91,2.91,0,0,0,0-.49.82.82,0,0,0-.17-.36.89.89,0,0,0-.38-.24,2,2,0,0,0-.67-.09,2.2,2.2,0,0,0-.73.11,1,1,0,0,0-.48.3,1.27,1.27,0,0,0-.24.54l.53.07a.8.8,0,0,1,.27-.46,1,1,0,0,1,.57-.13.91.91,0,0,1,.61.18.57.57,0,0,1,.16.46v.14a5.05,5.05,0,0,1-1,.18,3.78,3.78,0,0,0-.48.08,1.33,1.33,0,0,0-.39.17.86.86,0,0,0-.28.3.84.84,0,0,0-.11.42.82.82,0,0,0,.28.64,1.18,1.18,0,0,0,.81.25,1.73,1.73,0,0,0,.61-.1,2.07,2.07,0,0,0,.58-.35,1.11,1.11,0,0,0,.11.39h.57A1.19,1.19,0,0,1,34.46,67.35Zm-.57-1a1.26,1.26,0,0,1-.09.53.84.84,0,0,1-.36.37,1.14,1.14,0,0,1-.56.13.72.72,0,0,1-.48-.14.45.45,0,0,1-.16-.35.43.43,0,0,1,.08-.25.46.46,0,0,1,.21-.17,2.11,2.11,0,0,1,.47-.1,4,4,0,0,0,.89-.19Z" transform="translate(-1.48 -1)"/>
    <path class="cls-1" d="M35.41,67.73h.3a.89.89,0,0,1-.09.41.5.5,0,0,1-.25.22l.15.23a.8.8,0,0,0,.38-.3,1.05,1.05,0,0,0,.12-.54v-.61h-.61Z" transform="translate(-1.48 -1)"/>
    <path class="cls-1" d="M39.64,67.27a.37.37,0,0,1-.19,0,.23.23,0,0,1-.09-.1,1,1,0,0,1,0-.3V65h.54v-.41h-.54V63.5l-.54.3v.77h-.4V65h.4v1.8a1.83,1.83,0,0,0,.07.62.51.51,0,0,0,.23.24.94.94,0,0,0,.46.09,2.09,2.09,0,0,0,.41,0l-.08-.47Z" transform="translate(-1.48 -1)"/>
    <path class="cls-1" d="M41.24,64.65a1.29,1.29,0,0,0-.35.44v-.47H40.4v3.12h.54V66.1a2,2,0,0,1,.09-.61.56.56,0,0,1,.2-.3.53.53,0,0,1,.32-.1.78.78,0,0,1,.4.12l.19-.49a1.07,1.07,0,0,0-.56-.17A.61.61,0,0,0,41.24,64.65Z" transform="translate(-1.48 -1)"/>
    <path class="cls-1" d="M45.09,67.35a7.15,7.15,0,0,1,0-.93v-.71a3,3,0,0,0,0-.49.83.83,0,0,0-.17-.36.89.89,0,0,0-.38-.24,2,2,0,0,0-.67-.09,2.19,2.19,0,0,0-.73.11,1.05,1.05,0,0,0-.48.3,1.28,1.28,0,0,0-.24.54l.53.07a.8.8,0,0,1,.27-.46,1,1,0,0,1,.57-.13.91.91,0,0,1,.61.18.58.58,0,0,1,.16.46v.14a5.06,5.06,0,0,1-1,.18A3.77,3.77,0,0,0,43,66a1.35,1.35,0,0,0-.39.17.89.89,0,0,0-.28.3.84.84,0,0,0-.11.42.82.82,0,0,0,.28.64,1.18,1.18,0,0,0,.81.25,1.72,1.72,0,0,0,.61-.1,2,2,0,0,0,.58-.35,1.12,1.12,0,0,0,.11.39h.57A1.15,1.15,0,0,1,45.09,67.35Zm-.58-1a1.25,1.25,0,0,1-.09.53.83.83,0,0,1-.36.37,1.14,1.14,0,0,1-.56.13.73.73,0,0,1-.48-.14.45.45,0,0,1-.16-.35.44.44,0,0,1,.08-.25.47.47,0,0,1,.21-.17,2.08,2.08,0,0,1,.47-.1,4,4,0,0,0,.89-.2Z" transform="translate(-1.48 -1)"/>
    <path class="cls-1" d="M48.3,65a1.14,1.14,0,0,0-.44-.33,1.37,1.37,0,0,0-.56-.12,1.08,1.08,0,0,0-.88.42V63.42h-.54v4.31h.5v-.39a1,1,0,0,0,.89.46,1.28,1.28,0,0,0,1-.44,1.76,1.76,0,0,0,.41-1.24,2,2,0,0,0-.1-.63A1.57,1.57,0,0,0,48.3,65Zm-.45,2.08A.79.79,0,0,1,46.54,67a1.6,1.6,0,0,1-.16-.81,1.31,1.31,0,0,1,.26-.87.79.79,0,0,1,.61-.3.77.77,0,0,1,.61.3,1.38,1.38,0,0,1,.25.91,1.35,1.35,0,0,1-.26.88Z" transform="translate(-1.48 -1)"/>
    <path class="cls-1" d="M52,67.35a7.16,7.16,0,0,1,0-.93v-.71a2.92,2.92,0,0,0,0-.49.82.82,0,0,0-.17-.36.89.89,0,0,0-.38-.24,2,2,0,0,0-.66-.09,2.2,2.2,0,0,0-.73.11,1,1,0,0,0-.48.3,1.27,1.27,0,0,0-.24.54l.53.07a.8.8,0,0,1,.27-.46,1,1,0,0,1,.57-.13.91.91,0,0,1,.61.18.58.58,0,0,1,.16.46v.14a5.09,5.09,0,0,1-1,.18,3.75,3.75,0,0,0-.48.08,1.35,1.35,0,0,0-.39.17.87.87,0,0,0-.28.3.84.84,0,0,0-.11.42.82.82,0,0,0,.28.64,1.18,1.18,0,0,0,.81.25,1.72,1.72,0,0,0,.61-.1,2.08,2.08,0,0,0,.58-.35,1.09,1.09,0,0,0,.11.39h.57A1.19,1.19,0,0,1,52,67.35Zm-.58-1a1.26,1.26,0,0,1-.09.53.83.83,0,0,1-.36.37,1.14,1.14,0,0,1-.56.13.73.73,0,0,1-.48-.14.45.45,0,0,1-.16-.35.44.44,0,0,1,.08-.25.46.46,0,0,1,.21-.17,2.07,2.07,0,0,1,.47-.1,4,4,0,0,0,.89-.2Z" transform="translate(-1.48 -1)"/>
    <rect class="cls-1" x="51.27" y="62.41" width="0.54" height="0.61"/>
    <path class="cls-1" d="M52.76,67.88a1.06,1.06,0,0,1-.08.54.3.3,0,0,1-.25.11,1.11,1.11,0,0,1-.26,0l-.1.45a1.59,1.59,0,0,0,.43.05.72.72,0,0,0,.65-.3,1.52,1.52,0,0,0,.16-.8V64.6h-.55Z" transform="translate(-1.48 -1)"/>
    <path class="cls-1" d="M55.43,64.53a1.52,1.52,0,0,0-1,.35,1.59,1.59,0,0,0-.5,1.28,1.65,1.65,0,0,0,.41,1.22,1.45,1.45,0,0,0,1.09.42,1.59,1.59,0,0,0,.77-.19,1.29,1.29,0,0,0,.54-.54,2,2,0,0,0,.19-.95A1.58,1.58,0,0,0,56.5,65,1.45,1.45,0,0,0,55.43,64.53Zm.67,2.53a.91.91,0,0,1-1.29.06l-.06-.06a1.64,1.64,0,0,1,0-1.8A.91.91,0,0,1,56,65.21l.06.06a1.27,1.27,0,0,1,.27.88,1.35,1.35,0,0,1-.26.92Z" transform="translate(-1.48 -1)"/>
    <path class="cls-1" d="M60.67,66.42a7,7,0,0,0-.22.71c-.07-.25-.15-.49-.23-.72l-.67-1.81H59l1.22,3.13,0,.13a2.36,2.36,0,0,1-.16.39.47.47,0,0,1-.18.16.61.61,0,0,1-.29.06,1.24,1.24,0,0,1-.3,0l.06.5a1.1,1.1,0,0,0,.35.07.8.8,0,0,0,.45-.12,1,1,0,0,0,.33-.38,6,6,0,0,0,.3-.71l1.22-3.17h-.54Z" transform="translate(-1.48 -1)"/>
    <path class="cls-1" d="M64.53,63.47a.69.69,0,0,0-.28.33,1.47,1.47,0,0,0-.06.47v.33h-.49V65h.48v2.71h.54V65h.61V64.6h-.61v-.29a.54.54,0,0,1,.1-.39.47.47,0,0,1,.35-.1l.3,0,.08-.46a2.64,2.64,0,0,0-.51-.05A1,1,0,0,0,64.53,63.47Z" transform="translate(-1.48 -1)"/>
    <path class="cls-1" d="M68.42,67.35a6.94,6.94,0,0,1,0-.93v-.71a3,3,0,0,0,0-.49.84.84,0,0,0-.17-.36.89.89,0,0,0-.38-.24,2,2,0,0,0-.67-.09,2.19,2.19,0,0,0-.73.11,1.05,1.05,0,0,0-.48.3,1.26,1.26,0,0,0-.24.54l.53.07a.8.8,0,0,1,.27-.46,1,1,0,0,1,.57-.13.91.91,0,0,1,.61.18.57.57,0,0,1,.16.46v.14a5.06,5.06,0,0,1-1,.18,3.78,3.78,0,0,0-.48.08,1.36,1.36,0,0,0-.39.17.86.86,0,0,0-.28.3.84.84,0,0,0-.11.42.82.82,0,0,0,.28.64,1.18,1.18,0,0,0,.81.25,1.73,1.73,0,0,0,.61-.1,2.07,2.07,0,0,0,.58-.35,1.11,1.11,0,0,0,.11.39h.57A1.13,1.13,0,0,1,68.42,67.35Zm-.58-1a1.26,1.26,0,0,1-.09.53.84.84,0,0,1-.36.37,1.14,1.14,0,0,1-.56.13.72.72,0,0,1-.48-.14.45.45,0,0,1-.16-.35.44.44,0,0,1,.08-.25.46.46,0,0,1,.21-.17,2.09,2.09,0,0,1,.47-.1,4,4,0,0,0,.89-.2Z" transform="translate(-1.48 -1)"/>
    <path class="cls-1" d="M72.57,64.53a1.16,1.16,0,0,0-1,.55.77.77,0,0,0-.32-.4,1.07,1.07,0,0,0-.58-.14,1.15,1.15,0,0,0-.57.14,1.12,1.12,0,0,0-.4.37v-.44h-.48v3.12h.54V66.11a1.92,1.92,0,0,1,.09-.65.68.68,0,0,1,.28-.34.79.79,0,0,1,.42-.12.51.51,0,0,1,.44.18.88.88,0,0,1,.13.53v2h.54V65.9a1,1,0,0,1,.22-.7.76.76,0,0,1,.56-.22.61.61,0,0,1,.33.09.46.46,0,0,1,.19.23,1.43,1.43,0,0,1,.05.46v2h.54V65.59a1.09,1.09,0,0,0-.26-.79A1,1,0,0,0,72.57,64.53Z" transform="translate(-1.48 -1)"/>
    <rect class="cls-1" x="72.88" y="62.41" width="0.54" height="0.61"/>
    <rect class="cls-1" x="72.88" y="63.6" width="0.54" height="3.12"/>
    <rect class="cls-1" x="74.23" y="62.41" width="0.54" height="4.31"/>
    <rect class="cls-1" x="75.62" y="62.41" width="0.54" height="0.61"/>
    <rect class="cls-1" x="75.62" y="63.6" width="0.54" height="3.12"/>
    <path class="cls-2" d="M79.16,66.47a.47.47,0,0,0-.21.17.44.44,0,0,0-.08.25.45.45,0,0,0,.16.35.72.72,0,0,0,.48.14,1.14,1.14,0,0,0,.56-.13.83.83,0,0,0,.36-.37,1.26,1.26,0,0,0,.09-.53v-.19a4,4,0,0,1-.89.2A2.09,2.09,0,0,0,79.16,66.47Z" transform="translate(-1.48 -1)"/>
    <path class="cls-1" d="M81.1,67.35a7.15,7.15,0,0,1,0-.93v-.71a2.93,2.93,0,0,0,0-.49.82.82,0,0,0-.17-.36.89.89,0,0,0-.38-.24,2,2,0,0,0-.67-.09,2.21,2.21,0,0,0-.73.11,1,1,0,0,0-.48.3,1.28,1.28,0,0,0-.24.54l.53.07a.81.81,0,0,1,.27-.46,1,1,0,0,1,.57-.13.91.91,0,0,1,.61.18.57.57,0,0,1,.15.46v.14a5.08,5.08,0,0,1-1,.18,3.76,3.76,0,0,0-.48.08,1.33,1.33,0,0,0-.39.17.87.87,0,0,0-.1,1.37,1.18,1.18,0,0,0,.81.25,1.72,1.72,0,0,0,.61-.1,2.06,2.06,0,0,0,.58-.35,1.13,1.13,0,0,0,.11.39h.57A1.17,1.17,0,0,1,81.1,67.35Zm-.58-1a1.26,1.26,0,0,1-.09.53.83.83,0,0,1-.36.37,1.14,1.14,0,0,1-.56.13.72.72,0,0,1-.48-.14.45.45,0,0,1-.16-.35.44.44,0,0,1,.08-.25.47.47,0,0,1,.21-.17,2.09,2.09,0,0,1,.47-.1,4,4,0,0,0,.89-.2Z" transform="translate(-1.48 -1)"/>
    <path class="cls-1" d="M86.21,66.42v-.71a3,3,0,0,0,0-.49.82.82,0,0,0-.17-.36.89.89,0,0,0-.38-.24,2,2,0,0,0-.67-.09,2.2,2.2,0,0,0-.73.11,1.05,1.05,0,0,0-.48.3,1.27,1.27,0,0,0-.24.54l.53.07a.8.8,0,0,1,.27-.46,1,1,0,0,1,.57-.13.91.91,0,0,1,.61.18.57.57,0,0,1,.16.46v.14a5.09,5.09,0,0,1-1,.18,3.8,3.8,0,0,0-.48.08,1.37,1.37,0,0,0-.39.17.87.87,0,0,0-.28.3.84.84,0,0,0-.11.42.82.82,0,0,0,.28.64,1.18,1.18,0,0,0,.81.25,1.73,1.73,0,0,0,.61-.1,2.07,2.07,0,0,0,.58-.35,1.11,1.11,0,0,0,.11.39h.57a1.15,1.15,0,0,1-.14-.37A7.16,7.16,0,0,1,86.21,66.42Zm-.55-.06a1.24,1.24,0,0,1-.09.53.84.84,0,0,1-.36.37,1.14,1.14,0,0,1-.56.13.72.72,0,0,1-.48-.14.46.46,0,0,1-.09-.61.48.48,0,0,1,.22-.17,2.09,2.09,0,0,1,.47-.1,4,4,0,0,0,.89-.2Z" transform="translate(-1.48 -1)"/>
    <rect class="cls-1" x="85.72" y="66.12" width="0.62" height="0.6"/>
    <path class="cls-1" d="M90.58,67.17a.77.77,0,0,1-.53.19.81.81,0,0,1-.65-.29,1.38,1.38,0,0,1-.25-.91,1.34,1.34,0,0,1,.26-.91.85.85,0,0,1,.67-.29.7.7,0,0,1,.46.16.85.85,0,0,1,.26.47l.53-.08a1.18,1.18,0,0,0-.43-.73,1.35,1.35,0,0,0-.85-.26,1.56,1.56,0,0,0-.76.19,1.18,1.18,0,0,0-.52.57,2.13,2.13,0,0,0-.17.89,1.67,1.67,0,0,0,.4,1.2,1.39,1.39,0,0,0,1.06.42,1.29,1.29,0,0,0,1.33-1.15l-.53-.07A.93.93,0,0,1,90.58,67.17Z" transform="translate(-1.48 -1)"/>
    <rect class="cls-1" x="90.52" y="66.12" width="0.62" height="0.6"/>
    <polygon class="cls-1" points="28.9 63.23 29.29 63.23 29.87 62.47 29.25 62.47 28.9 63.23"/>
    <path class="cls-1" d="M79.71,6.21C72.57.12,61.46-.1,53.26,4,46-.31,35.36,0,28.64,5c-5.87,4.24-8.7,10.26-9.55,16.86C18.1,31.33,23,39.37,30.62,44.1,37,47.91,47,48.13,53.26,44c3.82,1.87,7.85,3.45,12.52,3.23,8.63-.07,17-6,20.23-14.14C89.83,23.8,86.93,12.89,79.71,6.21Zm-19-1.37c7.71-1.65,16,1.15,20.37,7.9A14,14,0,0,0,68,14.68,13.65,13.65,0,0,0,64.43,20,26.38,26.38,0,0,0,57.78,7.07c-.49-1.79,1.77-1.86,2.9-2.22ZM45.41,4.49a24.94,24.94,0,0,1,4.74,1.72A25.09,25.09,0,0,0,42.5,19.85,13.49,13.49,0,0,0,31,11.53a18,18,0,0,0-5.23,1.08c4.38-6.09,11.53-9.76,19.66-8.11ZM29.62,39.8c-6-4.68-8.2-12-7.28-19.45.08-.4.17-.8.28-1.22h0s1.12-5,8.74-4.93a10.66,10.66,0,0,1,4.79,1.74,8.08,8.08,0,0,1,4,6.53c0,.81-.08,10.59-.08,10.59H44a27.93,27.93,0,0,0,6.37,9C44.06,45.47,35.15,44,29.62,39.8Zm24.6-13.89a10.62,10.62,0,0,1-4.46-.64c-.25-.09-.49-.19-.72-.3a5.07,5.07,0,0,1-2.26-2.08,3.33,3.33,0,0,1-.52-1.63,3.52,3.52,0,0,1,.43-1.52A5.82,5.82,0,0,1,49,17.42a9,9,0,0,1,5.48-1,7.28,7.28,0,0,1,4.87,2.61,2.84,2.84,0,0,1,.74,1.41c.26,2.43-1.61,4.35-3.77,5.06a8.75,8.75,0,0,1-2.1.38Zm22.8,14c-5.52,4.6-14.22,5.31-20.59,2.09a31.4,31.4,0,0,0,6.72-9h1a4.29,4.29,0,0,0,.61,0h1.69V30.65c0-.75,0-1.52,0-2.3,0-2.63,0-5.45-.05-5.87a8.08,8.08,0,0,1,4-6.53,10.69,10.69,0,0,1,4.79-1.74c6.89-.07,8.68,3.82,9,4.57,1.85,8.08-.45,16.24-7,21.17Z" transform="translate(-1.48 -1)"/>
    <path class="cls-1" d="M31.71,16.26h-.12a7.94,7.94,0,0,0-5.83,2.1,4.07,4.07,0,0,0-1.36,2.51c0,.51.19,5,6.84,5.17h.45a7.87,7.87,0,0,0,5.69-1.89,5,5,0,0,0,1.52-3.23C38.9,20,37.68,16.31,31.71,16.26ZM26.36,19a7.12,7.12,0,0,1,5.23-1.85h.12c3.75,0,5.37,1.61,6,2.77a10.27,10.27,0,0,0-6.25-2.16h-.1A9.09,9.09,0,0,0,25.56,20,4.58,4.58,0,0,1,26.36,19Zm6.78-.15a9.68,9.68,0,0,1,4.3,2.05,6.53,6.53,0,0,1-4.24,2.7,2.74,2.74,0,0,0-.06-4.75Zm0,1.63a.81.81,0,1,1-.67-.93h0a.81.81,0,0,1,.67.93h0Zm-2.83,3.18a6.84,6.84,0,0,1-4.6-2.52,8.58,8.58,0,0,1,4.72-2.39,2.74,2.74,0,0,0-.12,4.9Zm6.43-.09c-1.19,1.16-3,1.71-5.51,1.63-3.64-.09-5.07-1.61-5.63-2.82a8.28,8.28,0,0,0,6,2.28,7.75,7.75,0,0,0,6.2-2.76A4.34,4.34,0,0,1,36.77,23.54Z" transform="translate(-1.48 -1)"/>
    <path class="cls-1" d="M59.43,20.57A8.28,8.28,0,0,0,53,17.8h-.1A7.16,7.16,0,0,0,47,21a.47.47,0,0,0,0,.4c.05.14,1.33,3.35,6.27,3.35s6.25-3.56,6.3-3.71A.46.46,0,0,0,59.43,20.57ZM51.9,23.7a5.16,5.16,0,0,1-4-2.46A6.26,6.26,0,0,1,52,18.81a2.74,2.74,0,0,0-.12,4.9Zm2.83-3.18A.81.81,0,1,1,54,19.6h0A.81.81,0,0,1,54.73,20.52Zm.05,3.11a2.74,2.74,0,0,0-.07-4.73,7.29,7.29,0,0,1,3.83,2,5.25,5.25,0,0,1-3.76,2.69Z" transform="translate(-1.48 -1)"/>
    <path class="cls-1" d="M69.66,20.21l.11-.21C69.56,20.19,69.58,20.23,69.66,20.21Z" transform="translate(-1.48 -1)"/>
    <path class="cls-1" d="M75.92,16.26h-.12A7.93,7.93,0,0,0,70,18.36a4.09,4.09,0,0,0-1.36,2.51c0,.51.19,5,6.84,5.17h.45a7.87,7.87,0,0,0,5.69-1.89,5,5,0,0,0,1.52-3.23C83.11,20,81.89,16.31,75.92,16.26ZM70.57,19a7.12,7.12,0,0,1,5.23-1.85h.12c3.74,0,5.37,1.61,6,2.77a10.27,10.27,0,0,0-6.24-2.15h-.1A9.09,9.09,0,0,0,69.78,20,4.59,4.59,0,0,1,70.57,19Zm6.78-.15a9.68,9.68,0,0,1,4.3,2.05,6.53,6.53,0,0,1-4.24,2.69,2.74,2.74,0,0,0-.06-4.75Zm0,1.63a.81.81,0,1,1-.67-.93h0a.81.81,0,0,1,.67.93Zm-2.83,3.18a6.84,6.84,0,0,1-4.6-2.52,8.58,8.58,0,0,1,4.72-2.39,2.74,2.74,0,0,0-.12,4.9ZM81,23.55c-1.19,1.16-3,1.71-5.51,1.63-3.65-.11-5.07-1.61-5.63-2.82a8.28,8.28,0,0,0,6,2.28A7.75,7.75,0,0,0,82,21.89,4.34,4.34,0,0,1,81,23.54Z" transform="translate(-1.48 -1)"/>
  </g>
</svg>
